<?xml version="1.0" standalone="no"?>
<!DOCTYPE svg PUBLIC "-//W3C//DTD SVG 20010904//EN"
 "http://www.w3.org/TR/2001/REC-SVG-20010904/DTD/svg10.dtd">
<svg version="1.0" xmlns="http://www.w3.org/2000/svg"
 width="246.000000pt" height="246.000000pt" viewBox="0 0 246.000000 246.000000"
 preserveAspectRatio="xMidYMid meet">
<metadata>
Created by potrace 1.11, written by Peter Selinger 2001-2013
</metadata>
<g transform="translate(0.000000,246.000000) scale(0.100000,-0.100000)"
fill="#000000" stroke="none">
<path d="M515 2220 c-21 -16 -42 -30 -46 -30 -13 0 -22 -47 -13 -62 5 -7 9
-20 10 -28 2 -8 4 -31 7 -50 9 -71 30 -122 54 -131 28 -10 28 -10 2 -40 -12
-13 -37 -49 -56 -79 -47 -74 -91 -119 -133 -137 -19 -8 -53 -37 -75 -65 -84
-106 -127 -148 -167 -160 -84 -25 -125 -158 -53 -170 15 -2 21 4 25 27 5 28
35 44 35 18 0 -28 14 -21 28 14 20 49 57 83 137 124 44 23 98 66 169 136 118
116 159 138 194 105 21 -19 156 -74 173 -71 26 4 54 -3 54 -14 0 -7 -28 -31
-62 -54 -35 -23 -83 -61 -108 -84 -25 -23 -58 -51 -73 -63 -18 -14 -30 -35
-34 -59 -5 -33 -2 -40 31 -71 46 -42 38 -49 -60 -52 -234 -7 -334 -28 -334
-69 0 -8 24 -34 53 -59 28 -25 63 -55 77 -67 53 -46 330 -249 430 -316 226
-150 408 -260 507 -305 153 -69 417 -143 583 -163 30 -4 58 -9 62 -11 9 -6
150 -17 213 -17 110 0 231 33 280 76 74 65 5 161 -179 247 -56 26 -198 89
-316 140 -319 138 -525 242 -547 278 -6 11 -13 43 -14 73 -2 42 -15 79 -56
163 l-53 108 20 28 c11 15 35 58 53 96 18 38 43 84 54 103 20 31 22 55 7 103
-3 9 -20 22 -38 28 -42 14 -62 36 -102 113 -27 53 -40 67 -90 95 -32 18 -88
55 -125 82 -80 60 -150 93 -193 90 -17 -1 -47 -2 -66 -3 l-35 -2 -6 72 c-7 78
-31 128 -63 137 -12 3 -44 6 -72 6 -42 0 -58 -5 -89 -30z m580 -875 c-2 -20
-7 -40 -10 -46 -4 -5 4 -29 18 -52 13 -23 37 -71 52 -107 16 -36 37 -75 47
-86 38 -43 -8 -33 -88 19 -207 134 -245 157 -264 157 -13 0 -28 12 -38 30 -9
16 -20 30 -24 30 -5 0 -8 6 -8 14 0 10 22 18 73 25 39 7 104 20 142 30 104 27
106 27 100 -14z"/>
</g>
</svg>
